<?xml version="1.0" encoding="UTF-8"?>
<svg 
    width="68" height="68" 
    viewBox="22 22 68 68" 
    fill="none" 
    xmlns="http://www.w3.org/2000/svg">
    
    <!-- Blockchain Blocks Centered with More Squares -->
    <rect x="22" y="22" width="12" height="12" fill="#28A745" stroke="black" stroke-width="1"/>
    <rect x="36" y="22" width="12" height="12" fill="#28A745" stroke="black" stroke-width="1"/>
    <rect x="50" y="22" width="12" height="12" fill="#DC3545" stroke="black" stroke-width="1"/>
    <rect x="64" y="22" width="12" height="12" fill="#28A745" stroke="black" stroke-width="1"/>
    <rect x="78" y="22" width="12" height="12" fill="#28A745" stroke="black" stroke-width="1"/>
    
    <rect x="22" y="36" width="12" height="12" fill="#28A745" stroke="black" stroke-width="1"/>
    <rect x="36" y="36" width="12" height="12" fill="#DC3545" stroke="black" stroke-width="1"/>
    <rect x="50" y="36" width="12" height="12" fill="#28A745" stroke="black" stroke-width="1"/>
    <rect x="64" y="36" width="12" height="12" fill="#28A745" stroke="black" stroke-width="1"/>
    <rect x="78" y="36" width="12" height="12" fill="#DC3545" stroke="black" stroke-width="1"/>
    
    <rect x="22" y="50" width="12" height="12" fill="#DC3545" stroke="black" stroke-width="1"/>
    <rect x="36" y="50" width="12" height="12" fill="#28A745" stroke="black" stroke-width="1"/>
    <rect x="50" y="50" width="12" height="12" fill="#28A745" stroke="black" stroke-width="1"/>
    <rect x="64" y="50" width="12" height="12" fill="#DC3545" stroke="black" stroke-width="1"/>
    <rect x="78" y="50" width="12" height="12" fill="#28A745" stroke="black" stroke-width="1"/>
    
    <rect x="22" y="64" width="12" height="12" fill="#28A745" stroke="black" stroke-width="1"/>
    <rect x="36" y="64" width="12" height="12" fill="#28A745" stroke="black" stroke-width="1"/>
    <rect x="50" y="64" width="12" height="12" fill="#DC3545" stroke="black" stroke-width="1"/>
    <rect x="64" y="64" width="12" height="12" fill="#28A745" stroke="black" stroke-width="1"/>
    <rect x="78" y="64" width="12" height="12" fill="#28A745" stroke="black" stroke-width="1"/>
    
</svg>
